<svg t="1569837723843" class="icon" viewBox="0 0 1024 1024" version="1.1" xmlns="http://www.w3.org/2000/svg" p-id="930" width="260" height="260"><path d="M807.25333333 279.552c40.16355555-21.04888889 67.47022222-63.14666667 67.47022222-111.616 0-69.632-56.43377778-126.06577778-126.06577777-126.06577778-34.70222222 0-66.21866667 14.10844445-88.97422223 36.75022223-33.22311111-46.42133333-87.60888889-76.8-149.16266666-76.8-60.98488889 0-115.02933333 29.80977778-148.25244444 75.54844444-22.75555555-22.41422222-54.04444445-36.29511111-88.40533334-36.29511111-69.632 0-126.06577778 56.43377778-126.06577778 126.06577777 0 49.49333333 28.55822222 92.38755555 70.08711112 112.98133334C87.38133333 365.90933333 2.38933333 505.856 2.38933333 660.82133333c0 228.57955555 181.81688889 360.448 509.83822222 360.448 325.06311111 0 509.83822222-131.86844445 509.83822223-360.448-0.11377778-157.35466667-84.87822222-296.50488889-214.81244445-381.26933333z m115.712 501.30488889c-16.95288889 33.56444445-42.55288889 62.69155555-76.11733333 86.47111111-36.06755555 25.6-81.80622222 45.51111111-135.73688889 59.16444445-57.68533333 14.56355555-124.58666667 21.95911111-198.99733333 21.9591111-75.09333333 0-142.44977778-7.39555555-200.24888889-21.9591111-53.93066667-13.65333333-99.55555555-33.45066667-135.39555556-59.05066667-33.33688889-23.66577778-58.70933333-52.79288889-75.43466666-86.35733333-17.18044445-34.47466667-25.94133333-74.97955555-25.94133334-120.26311112 0-31.40266667 4.32355555-62.80533333 12.74311112-93.29777778 8.192-29.80977778 20.48-58.93688889 36.40888888-86.4711111 31.744-54.95466667 77.93777778-103.31022222 133.46133334-139.71911112l51.76888888-34.01955555c10.35377778-6.48533333 17.18044445-17.97688889 17.18044445-31.06133333 0-13.99466667-7.85066667-26.28266667-19.456-32.42666667v-0.11377778l-57.11644445-28.44444445c-18.31822222-9.10222222-29.696-27.42044445-29.696-47.78666666 0-29.35466667 23.89333333-53.248 53.248-53.248 14.10844445 0 27.30666667 5.46133333 37.31911112 15.36l30.15111111 29.696 0.22755555-0.11377778c6.59911111 6.59911111 15.81511111 10.69511111 25.94133334 10.69511111 14.90488889 0 27.648-8.87466667 33.45066666-21.504l20.25244445-27.87555555c10.12622222-13.88088889 23.43822222-25.37244445 38.57066667-33.22311112 15.81511111-8.192 32.88177778-12.40177778 50.85866666-12.40177777 18.09066667 0 35.38488889 4.20977778 51.31377778 12.62933333 15.24622222 7.96444445 28.55822222 19.68355555 38.68444444 33.67822222l21.504 30.15111112c6.144 11.71911111 18.432 19.79733333 32.54044445 19.79733333 10.01244445 0 19.00088889-3.98222222 25.6-10.46755556l0.45511111 0.11377778 30.49244444-30.37866667c10.01244445-10.01244445 23.43822222-15.58755555 37.54666667-15.58755555 29.35466667 0 53.248 23.89333333 53.248 53.248 0 19.79733333-10.92266667 37.888-28.55822222 47.21777777l-55.18222223 29.01333334v0.11377778c-11.03644445 6.37155555-18.432 18.20444445-18.432 31.744 0 13.08444445 6.82666667 24.576 17.18044445 31.06133333v0.45511111l50.51733333 32.88177778c55.40977778 36.06755555 101.26222222 84.08177778 132.66488889 138.69511111 15.81511111 27.53422222 27.98933333 56.66133333 36.18133333 86.69866667 8.41955555 30.83377778 12.74311111 62.69155555 12.74311112 94.77688888 0.22755555 45.16977778-8.53333333 85.56088889-25.94133334 120.14933334z" p-id="931"></path><path d="M686.08 662.07288889c-4.77866667-4.096-9.78488889-6.25777778-15.01866667-6.25777778H550.912l20.02488889-38.68444444 38.68444444-57.00266667 76.57244445-112.64c2.16177778-3.98222222 3.64088889-8.76088889 4.20977777-14.44977778 0.68266667-5.68888889-0.45511111-12.06044445-3.29955555-19.00088889s-9.10222222-11.71911111-18.65955555-14.10844444c-9.67111111-2.38933333-17.63555555-1.36533333-23.89333334 2.95822222-6.37155555 4.32355555-11.49155555 9.78488889-15.36 16.384L510.976 589.25511111l-18.432-29.12711111-92.16-133.80266667c-6.94044445-10.92266667-12.288-17.97688889-15.70133333-21.27644444-3.52711111-3.29955555-8.98844445-5.34755555-16.384-6.25777778-7.39555555-0.45511111-14.90488889 1.93422222-22.30044445 7.168-7.39555555 5.23377778-11.264 12.17422222-11.49155555 20.59377778-0.22755555 8.53333333 1.82044445 15.81511111 6.25777778 21.95911111l73.728 111.50222222 36.75022222 57.00266667 20.36622222 38.68444444h-113.43644444c-6.59911111 0-13.08444445 1.93422222-19.68355556 5.91644445-6.59911111 3.98222222-9.78488889 11.15022222-9.78488889 21.61777777-0.45511111 7.39555555 1.82044445 20.48 6.82666667 25.48622223 5.00622222 5.00622222 11.49155555 7.50933333 19.34222222 7.50933333h120.03555556v119.01155556c0 11.83288889 3.18577778 21.84533333 9.55733333 30.15111111 6.37155555 8.30577778 14.90488889 12.06044445 25.94133333 11.15022222 10.92266667-0.91022222 19.56977778-4.89244445 25.94133334-12.17422222 6.37155555-7.168 9.55733333-16.95288889 9.55733333-29.12711111V716.45866667h124.01777777c5.23377778 0 10.58133333-2.84444445 16.04266667-8.53333334 5.46133333-5.68888889 8.07822222-19.34222222 7.85066667-27.42044444-0.45511111-8.192-2.95822222-14.22222222-7.73688889-18.432z" p-id="932"></path></svg>
