<svg t="1565081477858" class="icon" viewBox="0 0 1024 1024" version="1.1" xmlns="http://www.w3.org/2000/svg" p-id="1409" width="250" height="250"><path d="M512 512m-512 0a512 512 0 1 0 1024 0 512 512 0 1 0-1024 0Z" fill="#F9D8A3" p-id="1410" data-spm-anchor-id="a313x.7781069.0.i5" class="selected"></path><path d="M775.968 320.624L491.184 724.056l-19.128 58.856 213.064 211c182.032-65.4 316.296-230.936 336.28-430.216L775.968 320.624z" fill="#E4BC84" p-id="1411"></path><path d="M649.752 268.904c-56.424 0-106.36 27.256-137.744 69.184-31.424-41.928-81.336-69.184-137.76-69.184-95.104 0-172.184 77.088-172.184 172.192 0 95.104 174.44 242.496 309.944 378 141.008-141.032 309.928-282.896 309.928-378 0-95.104-77.088-172.192-172.184-172.192z" fill="#E11F26" p-id="1412"></path><path d="M649.752 268.904c-26.616 0-51.752 6.12-74.216 16.936a223.096 223.096 0 0 1 21.6 22.488c75.12 90.448 66.04 191.192 22.712 293.928-30.984 73.44-63.92 134.72-90.248 199.376 137.112-135.2 292.344-269.368 292.344-360.528-0.008-95.112-77.096-172.2-172.192-172.2z" fill="#D12027" p-id="1413"></path></svg>
