<svg t="1563236693764" class="icon" viewBox="0 0 1024 1024" version="1.1" xmlns="http://www.w3.org/2000/svg" p-id="3656" width="260" height="260"><path d="M977.501556 837.818182H698.228829a186.181818 186.181818 0 0 1-372.363636 0H46.592465a46.545455 46.545455 0 0 1-43.380363-30.021818c0-0.186182 0-0.372364-0.162909-0.558546a45.684364 45.684364 0 0 1-2.885818-14.871273 47.266909 47.266909 0 0 1 0.744727-9.751272c0-0.465455 0.162909-0.907636 0.279273-1.373091a47.150545 47.150545 0 0 1 12.520727-25.995637L139.683375 628.898909V465.454545A372.200727 372.200727 0 0 1 465.501556 96.302545V46.545455a46.545455 46.545455 0 0 1 93.090909 0v49.75709A372.200727 372.200727 0 0 1 884.410647 465.454545v164.026182l125.975273 125.672728A47.429818 47.429818 0 0 1 1024.047011 791.482182 46.545455 46.545455 0 0 1 977.501556 837.818182z m-465.454545 93.090909a93.090909 93.090909 0 0 0 93.090909-93.090909h-186.181818a93.090909 93.090909 0 0 0 93.090909 93.090909z m293.818182-243.805091a45.824 45.824 0 0 1-4.933818-7.447273 49.245091 49.245091 0 0 1-3.072-4.654545 48.686545 48.686545 0 0 1-2.839273-5.236364A46.545455 46.545455 0 0 1 791.319738 651.636364v-186.181819a279.272727 279.272727 0 0 0-558.545454 0v186.181819a46.545455 46.545455 0 0 1-3.793455 18.385454c-0.465455 1.233455-1.303273 2.327273-1.885091 3.444364a46.405818 46.405818 0 0 1-4.794182 7.261091 45.544727 45.544727 0 0 1-4.096 6.167272L160.628829 744.727273h703.115636zM420.375738 251.531636l2.210909 5.189819A22.970182 22.970182 0 0 1 442.228829 279.272727a22.644364 22.644364 0 0 1-4.445091 12.916364l0.930909 2.117818c-1.629091 0.698182-3.095273 1.605818-4.654545 2.327273a22.784 22.784 0 0 1-9.541818 4.654545 186.368 186.368 0 0 0-92.904728 118.923637L325.865193 418.909091a23.272727 23.272727 0 0 1-46.545455 0 22.830545 22.830545 0 0 1 9.890909-18.618182 232.727273 232.727273 0 0 1 131.165091-148.759273z" p-id="3657"></path></svg>
