<svg t="1562037880613" class="icon" viewBox="0 0 1024 1024" version="1.1" xmlns="http://www.w3.org/2000/svg" p-id="652" width="285" height="285"><path d="M192 256v80H112v-80h80m16-48H96a32 32 0 0 0-32 32v112a32 32 0 0 0 32 32h112a32 32 0 0 0 32-32v-112a32 32 0 0 0-32-32zM688 128.96L896 288l-208 159.04V384a48 48 0 0 0-48-48H352v-80h288a48 48 0 0 0 48-48V128.96M672 64a32 32 0 0 0-32 32v112H336a32 32 0 0 0-32 32v112a32 32 0 0 0 32 32h304v96a32 32 0 0 0 32 32 30.88 30.88 0 0 0 19.2-6.72l251.2-192a32 32 0 0 0 0-50.88l-251.2-192A30.88 30.88 0 0 0 672 64zM907.2 704v80h-80v-80h80m16-48h-112a32 32 0 0 0-32 32v112a32 32 0 0 0 32 32h112a32 32 0 0 0 32-32v-112a32 32 0 0 0-32-32zM331.2 577.44V656a48 48 0 0 0 48 48h288v80h-288a48 48 0 0 0-48 48v64L122.4 736l208.8-158.56m16-64a32 32 0 0 0-19.2 6.56l-251.2 192a32 32 0 0 0 0 50.88l251.2 192a30.88 30.88 0 0 0 19.2 6.72 32 32 0 0 0 32-32V832h304a32 32 0 0 0 32-32v-112a32 32 0 0 0-32-32h-304v-112a32 32 0 0 0-32-32z" fill="#B8B8B8" p-id="653"></path></svg>