<svg t="1569837593499" class="icon" viewBox="0 0 1024 1024" version="1.1" xmlns="http://www.w3.org/2000/svg" p-id="991" width="260" height="260"><path d="M493.79555555 727.51407408h-145.63555555c-20.02488889 0-36.40888889 16.384-36.40888889 36.40888888s16.384 36.40888889 36.40888889 36.40888889h145.63555555c20.02488889 0 36.40888889-16.384 36.4088889-36.40888889s-16.384-36.40888889-36.4088889-36.40888888zM675.84 545.46962963H348.16c-20.02488889 0-36.40888889 16.384-36.40888889 36.40888888s16.384 36.40888889 36.40888889 36.4088889h327.68c20.02488889 0 36.40888889-16.384 36.40888889-36.4088889s-16.384-36.40888889-36.40888889-36.40888888zM675.84 363.42518518H348.16c-20.02488889 0-36.40888889 16.384-36.40888889 36.4088889s16.384 36.40888889 36.40888889 36.40888888h327.68c20.02488889 0 36.40888889-16.384 36.40888889-36.40888888s-16.384-36.40888889-36.40888889-36.4088889z" p-id="992"></path><path d="M748.65777778 90.35851851h-25.48622223c-14.56355555-41.87022222-54.61333333-72.81777778-101.94488888-72.81777777H402.77333333c-47.33155555 0-87.38133333 30.94755555-101.94488888 72.81777777H275.34222222C175.21777778 90.35851851 93.29777778 172.27851851 93.29777778 272.40296296v546.13333334c0 100.12444445 81.92 182.04444445 182.04444444 182.04444444h473.31555556c100.12444445 0 182.04444445-81.92 182.04444444-182.04444444V272.40296296c0-100.12444445-81.92-182.04444445-182.04444444-182.04444445zM402.77333333 90.35851851h218.45333334c20.02488889 0 36.40888889 16.384 36.40888888 36.4088889s-16.384 36.40888889-36.40888888 36.40888889H402.77333333c-20.02488889 0-36.40888889-16.384-36.40888888-36.40888889s16.384-36.40888889 36.40888888-36.4088889z m455.11111112 728.17777779c0 60.07466667-49.152 109.22666667-109.22666667 109.22666666H275.34222222c-60.07466667 0-109.22666667-49.152-109.22666667-109.22666666V272.40296296c0-60.07466667 49.152-109.22666667 109.22666667-109.22666666h25.48622223c14.56355555 41.87022222 54.61333333 72.81777778 101.94488888 72.81777778h218.45333334c47.33155555 0 87.38133333-30.94755555 101.94488888-72.81777778H748.65777778c60.07466667 0 109.22666667 49.152 109.22666667 109.22666666v546.13333334z" p-id="993"></path></svg>
