<svg t="1562057681041" class="icon" viewBox="0 0 1024 1024" version="1.1" xmlns="http://www.w3.org/2000/svg" p-id="5440" width="265" height="265"><path d="M512 1024C229.376 1024 0 794.624 0 512S229.376 0 512 0C794.624 0 1024 229.376 1024 512S794.624 1024 512 1024zM512 57.344c-249.856 0-454.656 204.8-454.656 454.656s204.8 454.656 454.656 454.656c249.856 0 454.656-204.8 454.656-454.656S761.856 57.344 512 57.344z" p-id="5441"></path><path d="M212.992 880.64 163.84 860.16c16.384-36.864 61.44-57.344 114.688-81.92 53.248-24.576 114.688-53.248 114.688-86.016l0-45.056c-16.384-16.384-49.152-49.152-53.248-98.304-16.384-12.288-40.96-40.96-40.96-77.824 0-20.48 8.192-36.864 16.384-49.152C311.296 397.312 303.104 352.256 303.104 315.392c0-118.784 81.92-192.512 208.896-192.512 36.864 0 81.92 8.192 106.496 36.864 57.344 8.192 102.4 77.824 102.4 159.744 0 49.152-8.192 94.208-16.384 114.688 4.096 8.192 12.288 24.576 12.288 40.96 0 40.96-20.48 65.536-36.864 77.824-4.096 49.152-32.768 81.92-49.152 94.208l0 45.056c0 28.672 53.248 49.152 102.4 65.536 57.344 20.48 118.784 45.056 135.168 94.208L819.2 872.448c-8.192-24.576-57.344-45.056-102.4-61.44-65.536-24.576-139.264-53.248-139.264-118.784l0-77.824 12.288-8.192c0 0 36.864-24.576 36.864-73.728l0-20.48 16.384-8.192c4.096 0 20.48-12.288 20.48-36.864 0-8.192-4.096-16.384-8.192-20.48l-12.288-12.288 4.096-16.384c0 0 16.384-49.152 16.384-110.592 0-53.248-28.672-102.4-61.44-102.4l-16.384 0-8.192-12.288c-4.096-8.192-32.768-20.48-65.536-20.48-94.208 0-151.552 53.248-151.552 139.264 0 40.96 12.288 106.496 16.384 106.496l4.096 16.384L364.544 450.56l0 0c0 0-8.192 8.192-8.192 20.48 0 16.384 20.48 36.864 28.672 40.96l12.288 8.192 0 12.288c0 45.056 40.96 73.728 40.96 73.728l12.288 8.192 0 77.824c0 69.632-77.824 106.496-147.456 139.264C266.24 847.872 221.184 868.352 212.992 880.64z" p-id="5442"></path></svg>